<?xml version="1.0" standalone="no"?>
<!DOCTYPE svg PUBLIC "-//W3C//DTD SVG 20010904//EN"
 "http://www.w3.org/TR/2001/REC-SVG-20010904/DTD/svg10.dtd">
<svg version="1.0" xmlns="http://www.w3.org/2000/svg"
 width="512.000000pt" height="512.000000pt" viewBox="0 0 512.000000 512.000000"
 preserveAspectRatio="xMidYMid meet">

<g transform="translate(0.000000,512.000000) scale(0.100000,-0.100000)"
fill="#000000" stroke="none">
<path d="M0 2690 c0 -2151 2 -2431 15 -2436 21 -9 21 -104 0 -104 -12 0 -15
-15 -15 -75 l0 -75 2560 0 2560 0 0 2560 0 2560 -2560 0 -2560 0 0 -2430z
m2294 1279 c29 -34 30 -38 16 -73 -17 -46 -39 -51 -295 -57 -257 -6 -274 -9
-402 -72 -163 -78 -317 -258 -377 -439 -35 -104 -46 -220 -46 -505 0 -230 -1
-244 -20 -263 -30 -30 -83 -27 -109 6 -20 26 -21 38 -21 318 0 368 12 441 101
621 76 153 231 316 369 389 173 91 236 104 527 105 l231 1 26 -31z m1108 17
c154 -30 283 -102 403 -223 68 -70 150 -195 183 -278 51 -130 57 -188 57 -553
l0 -344 -28 -24 c-34 -29 -67 -31 -98 -5 l-24 19 -3 324 c-2 357 -11 436 -62
545 -84 182 -241 331 -398 377 -40 11 -110 15 -294 17 -238 2 -242 2 -265 25
-30 30 -29 65 3 103 l26 31 213 0 c142 0 238 -5 287 -14z m-1108 -335 c34 -32
34 -74 1 -107 -25 -25 -25 -25 -207 -23 -101 1 -196 -2 -213 -6 -49 -13 -107
-44 -158 -87 -27 -22 -50 -39 -51 -37 -2 2 -9 15 -16 29 -7 14 -26 42 -42 62
l-29 37 53 39 c132 99 209 117 490 117 141 0 147 -1 172 -24z m1051 2 c97 -24
192 -89 260 -178 92 -121 104 -180 106 -515 l1 -254 -27 -23 c-33 -29 -55 -29
-90 -1 l-27 21 4 156 c3 86 1 204 -3 263 -7 94 -12 117 -43 182 -25 52 -52 89
-94 127 -85 79 -124 89 -358 89 -104 0 -194 4 -201 8 -6 4 -17 20 -22 35 -12
32 6 89 32 103 26 15 394 5 462 -13z m-1752 -183 c14 -11 35 -36 47 -55 l21
-35 -24 -32 c-84 -113 -106 -202 -107 -429 0 -133 -2 -147 -20 -164 -29 -26
-79 -24 -102 4 -16 21 -18 43 -18 193 0 194 15 290 62 381 30 61 97 157 109
157 3 0 18 -9 32 -20z m703 -123 c29 -34 31 -70 4 -97 -17 -17 -33 -20 -97
-20 -152 0 -242 -27 -311 -93 -45 -44 -62 -108 -62 -239 0 -102 -1 -110 -25
-133 -31 -32 -66 -32 -99 1 -68 68 -60 218 20 381 28 58 48 83 97 123 111 90
173 110 340 107 106 -2 109 -3 133 -30z m934 4 c91 -47 124 -97 133 -203 l6
-68 -69 0 -70 0 0 45 c0 47 -22 78 -68 96 -13 5 -90 9 -171 9 -143 0 -149 1
-175 25 -33 31 -34 68 0 101 l25 26 172 -4 c156 -3 176 -6 217 -27z m-243
-306 c46 -8 92 -51 119 -110 23 -48 24 -59 24 -298 0 -152 -4 -256 -10 -268
-7 -13 -21 -19 -45 -19 -61 0 -65 16 -65 260 l0 216 -27 32 -28 32 -376 1
c-268 1 -382 -2 -397 -10 -48 -26 -52 -52 -52 -330 0 -320 5 -349 70 -411 26
-25 61 -55 79 -68 17 -13 34 -34 37 -48 10 -39 -11 -54 -78 -54 -97 0 -178 54
-221 148 -21 45 -22 62 -25 396 l-3 349 26 51 c29 60 96 114 159 130 43 11
749 12 813 1z m387 -107 c21 -30 21 -104 0 -112 -24 -9 -29 -8 -58 19 -27 25
-34 62 -16 96 14 26 55 24 74 -3z m-712 -362 c96 -29 165 -111 175 -209 11
-110 -48 -221 -142 -267 l-45 -22 0 -487 c0 -424 -2 -489 -16 -509 -19 -28
-63 -29 -92 -2 -25 24 -23 -36 -22 592 l1 407 -44 19 c-53 23 -106 75 -133
128 -29 59 -26 164 6 228 56 112 183 161 312 122z m697 -53 c27 -28 27 -29 19
-118 -5 -49 -10 -126 -12 -170 -3 -44 -12 -103 -20 -132 -32 -102 -146 -220
-253 -262 -61 -23 -177 -35 -204 -20 -31 16 -49 66 -37 101 15 44 44 58 118
58 116 1 193 53 226 154 9 28 20 55 25 61 5 5 9 75 9 155 0 139 1 148 23 167
44 40 70 41 106 6z m-2198 -292 c24 -19 24 -23 30 -248 5 -208 8 -235 31 -305
37 -110 90 -200 171 -285 81 -85 170 -142 272 -173 64 -19 93 -21 323 -20 157
0 260 -4 272 -10 19 -10 50 -59 50 -79 0 -5 -12 -23 -26 -40 l-26 -31 -258 0
c-251 0 -262 1 -342 26 -132 41 -252 109 -334 187 -127 119 -191 219 -246 379
-32 92 -32 95 -36 324 -4 245 -1 267 41 284 34 14 53 12 78 -9z m2839 4 c16
-8 32 -25 36 -37 4 -13 7 -115 7 -228 0 -287 -24 -387 -129 -545 -98 -147
-191 -231 -337 -304 -137 -69 -206 -81 -454 -81 l-215 0 -29 29 c-36 36 -37
73 -4 106 l24 25 217 0 c239 0 291 8 398 62 145 73 259 192 326 341 48 109 55
154 52 380 l-2 209 29 29 c34 33 41 35 81 14z m-2194 -36 c16 -18 20 -42 24
-163 5 -136 6 -144 32 -178 50 -65 93 -78 262 -78 143 0 148 -1 171 -25 34
-33 33 -77 -2 -105 -27 -22 -34 -22 -205 -17 -170 5 -179 6 -228 33 -66 36
-133 110 -155 172 -19 51 -32 247 -21 306 13 69 82 99 122 55z m-291 -50 c18
-18 20 -35 23 -177 3 -124 8 -170 24 -217 26 -78 82 -151 153 -200 l57 -40
200 0 200 0 24 -28 c30 -35 30 -56 3 -92 l-22 -27 -212 4 -211 3 -75 37 c-85
43 -156 107 -210 191 -66 101 -92 221 -88 405 3 112 11 140 49 159 29 15 57 9
85 -18z m2181 6 c14 -19 24 -281 14 -356 -18 -132 -133 -299 -250 -363 -103
-56 -153 -67 -336 -73 -94 -3 -186 -3 -205 1 -44 8 -69 48 -69 109 l0 45 223
4 c221 4 222 4 281 32 79 39 132 88 166 155 39 79 50 143 50 294 0 73 4 137 8
143 23 35 95 40 118 9z m-3586 -1970 c7 -8 11 -34 8 -60 -2 -25 -2 -45 0 -45
2 0 12 5 23 11 19 10 20 12 4 29 -24 27 -15 44 13 25 28 -21 28 -52 0 -76 -46
-38 -66 -20 -74 64 -6 67 1 82 26 52z"/>
<path d="M2523 2420 c-38 -23 -53 -48 -53 -90 0 -51 25 -88 69 -101 51 -15 87
-5 123 33 48 52 29 136 -37 164 -45 19 -64 18 -102 -6z"/>
</g>
</svg>
