<?xml version="1.0" encoding="UTF-8"?>
<!DOCTYPE svg PUBLIC "-//W3C//DTD SVG 1.1//EN" "http://www.w3.org/Graphics/SVG/1.1/DTD/svg11.dtd">
<svg xmlns="http://www.w3.org/2000/svg" version="1.1" width="462px" height="308px" style="shape-rendering:geometricPrecision; text-rendering:geometricPrecision; image-rendering:optimizeQuality; fill-rule:evenodd; clip-rule:evenodd" xmlns:xlink="http://www.w3.org/1999/xlink">
<g><path style="opacity:1" fill="#fefefe" d="M -0.5,-0.5 C 153.5,-0.5 307.5,-0.5 461.5,-0.5C 461.5,102.167 461.5,204.833 461.5,307.5C 307.5,307.5 153.5,307.5 -0.5,307.5C -0.5,204.833 -0.5,102.167 -0.5,-0.5 Z"/></g>
<g><path style="opacity:1" fill="#141414" d="M 205.5,41.5 C 220.745,41.1758 235.911,41.5092 251,42.5C 255.419,49.672 260.085,56.672 265,63.5C 265.5,79.1631 265.667,94.8298 265.5,110.5C 240.5,110.5 215.5,110.5 190.5,110.5C 190.333,94.8298 190.5,79.1631 191,63.5C 196.092,56.3095 200.926,48.9762 205.5,41.5 Z"/></g>
<g><path style="opacity:1" fill="#fafafa" d="M 262.5,63.5 C 258.5,63.5 254.5,63.5 250.5,63.5C 250.334,57.4908 250.501,51.4908 251,45.5C 255.057,51.3836 258.89,57.3836 262.5,63.5 Z"/></g>
<g><path style="opacity:1" fill="#fafafa" d="M 205.5,63.5 C 201.5,63.5 197.5,63.5 193.5,63.5C 197.11,57.3836 200.943,51.3836 205,45.5C 205.499,51.4908 205.666,57.4908 205.5,63.5 Z"/></g>
<g><path style="opacity:1" fill="#fefefe" d="M 248.5,63.5 C 234.833,63.5 221.167,63.5 207.5,63.5C 207.5,56.8333 207.5,50.1667 207.5,43.5C 221.167,43.5 234.833,43.5 248.5,43.5C 248.5,50.1667 248.5,56.8333 248.5,63.5 Z"/></g>
<g><path style="opacity:1" fill="#393939" d="M 193.5,63.5 C 197.5,63.5 201.5,63.5 205.5,63.5C 206.167,64.8333 206.833,64.8333 207.5,63.5C 221.167,63.5 234.833,63.5 248.5,63.5C 249.167,64.8333 249.833,64.8333 250.5,63.5C 254.5,63.5 258.5,63.5 262.5,63.5C 262.833,64.1667 263.167,64.8333 263.5,65.5C 239.833,65.5 216.167,65.5 192.5,65.5C 192.833,64.8333 193.167,64.1667 193.5,63.5 Z"/></g>
<g><path style="opacity:1" fill="#fdfdfd" d="M 192.5,65.5 C 216.167,65.5 239.833,65.5 263.5,65.5C 263.5,80.1667 263.5,94.8333 263.5,109.5C 239.833,109.5 216.167,109.5 192.5,109.5C 192.5,94.8333 192.5,80.1667 192.5,65.5 Z"/></g>
<g><path style="opacity:1" fill="#030303" d="M 86.5,140.5 C 93.679,140.089 100.679,140.923 107.5,143C 114.136,146.318 120.802,149.651 127.5,153C 135.258,155.818 143.258,157.485 151.5,158C 152.491,173.422 152.824,188.922 152.5,204.5C 160.174,204.666 167.841,204.5 175.5,204C 182.008,198.981 182.675,193.314 177.5,187C 171.798,184.706 165.798,183.872 159.5,184.5C 159.5,179.833 159.5,175.167 159.5,170.5C 172.088,167.751 182.588,171.084 191,180.5C 197.139,190.39 196.973,200.056 190.5,209.5C 203.355,221.072 204.855,234.072 195,248.5C 191.547,252.145 187.38,254.645 182.5,256C 167.837,256.5 153.17,256.667 138.5,256.5C 138.5,227.833 138.5,199.167 138.5,170.5C 128.617,168.702 119.283,165.202 110.5,160C 95.9396,153.051 82.1062,154.218 69,163.5C 65.3756,159.924 62.7089,155.924 61,151.5C 68.83,145.995 77.33,142.328 86.5,140.5 Z"/></g>
<g><path style="opacity:1" fill="#13838e" d="M 339.5,167.5 C 346.89,177.257 354.057,187.257 361,197.5C 367.638,187.363 374.471,177.363 381.5,167.5C 385.772,169.774 389.772,172.441 393.5,175.5C 385.797,187.524 378.131,199.524 370.5,211.5C 378.403,224.298 386.57,236.965 395,249.5C 395.749,250.635 395.583,251.635 394.5,252.5C 391.696,254.138 389.029,255.971 386.5,258C 384.633,258.711 383.133,258.211 382,256.5C 375,245.833 368,235.167 361,224.5C 353.371,236.297 345.538,247.964 337.5,259.5C 333.324,256.912 329.324,254.079 325.5,251C 334.422,237.821 343.088,224.487 351.5,211C 343.849,199.344 336.182,187.677 328.5,176C 332.235,173.147 335.902,170.313 339.5,167.5 Z"/></g>
<g><path style="opacity:1" fill="#0b2a2d" d="M 214.5,170.5 C 227.167,170.5 239.833,170.5 252.5,170.5C 252.5,174.833 252.5,179.167 252.5,183.5C 244.167,183.5 235.833,183.5 227.5,183.5C 227.5,187.833 227.5,192.167 227.5,196.5C 233.5,196.5 239.5,196.5 245.5,196.5C 245.5,200.833 245.5,205.167 245.5,209.5C 239.5,209.5 233.5,209.5 227.5,209.5C 227.5,216.167 227.5,222.833 227.5,229.5C 223.167,229.5 218.833,229.5 214.5,229.5C 214.5,209.833 214.5,190.167 214.5,170.5 Z"/></g>
<g><path style="opacity:1" fill="#11575d" d="M 316.5,170.5 C 316.5,175.167 316.5,179.833 316.5,184.5C 303.656,184.171 290.989,184.505 278.5,185.5C 278.5,192.167 278.5,198.833 278.5,205.5C 287.652,206.494 296.985,206.827 306.5,206.5C 306.5,210.833 306.5,215.167 306.5,219.5C 296.985,219.173 287.652,219.506 278.5,220.5C 278.5,227.833 278.5,235.167 278.5,242.5C 291.5,242.5 304.5,242.5 317.5,242.5C 317.5,247.5 317.5,252.5 317.5,257.5C 299.59,257.826 281.757,257.492 264,256.5C 263.5,227.835 263.333,199.169 263.5,170.5C 281.167,170.5 298.833,170.5 316.5,170.5 Z"/></g>
<g><path style="opacity:1" fill="#467e83" d="M 316.5,170.5 C 317.487,175.305 317.821,180.305 317.5,185.5C 304.5,185.5 291.5,185.5 278.5,185.5C 290.989,184.505 303.656,184.171 316.5,184.5C 316.5,179.833 316.5,175.167 316.5,170.5 Z"/></g>
<g><path style="opacity:1" fill="#467f84" d="M 278.5,205.5 C 288.167,205.5 297.833,205.5 307.5,205.5C 307.5,210.5 307.5,215.5 307.5,220.5C 297.833,220.5 288.167,220.5 278.5,220.5C 287.652,219.506 296.985,219.173 306.5,219.5C 306.5,215.167 306.5,210.833 306.5,206.5C 296.985,206.827 287.652,206.494 278.5,205.5 Z"/></g>
<g><path style="opacity:1" fill="#686868" d="M 176.5,219.5 C 168.833,219.5 161.167,219.5 153.5,219.5C 153.5,227.167 153.5,234.833 153.5,242.5C 152.508,234.684 152.174,226.684 152.5,218.5C 160.684,218.174 168.684,218.508 176.5,219.5 Z"/></g>
<g><path style="opacity:1" fill="#fbfbfb" d="M 176.5,219.5 C 184.892,220.922 188.392,225.922 187,234.5C 185.73,238.77 182.896,241.27 178.5,242C 170.173,242.5 161.84,242.666 153.5,242.5C 153.5,234.833 153.5,227.167 153.5,219.5C 161.167,219.5 168.833,219.5 176.5,219.5 Z"/></g>
</svg>
